<?xml version="1.0" encoding="UTF-8"?>
<svg id="Component_7_1" data-name="Component 7 1" xmlns="http://www.w3.org/2000/svg" viewBox="0 0 441.07 207.12">
  <defs>
    <style>
      .cls-1 {
        fill: #ac8b58;
      }

      .cls-2 {
        fill: #ab8b58;
      }

      .cls-3 {
        fill: #8b171a;
      }

      .cls-4 {
        fill: #939499;
      }

      .cls-5 {
        fill: #8c171a;
      }
    </style>
  </defs>
  <path id="Path_2" data-name="Path 2" class="cls-4" d="M297.17,3.55V.25h-12.72v3.3h4.49v13.32h3.75V3.55h4.49ZM284.45,12.23c0-3.25-.25-4.14-4.73-5.23-2.61-.64-2.71-.64-2.71-2.27s.39-1.53,2.07-1.53c1.56,0,3.11.17,4.64.49l.4-3.16c-1.65-.35-3.34-.53-5.03-.54-4.59,0-5.77,1.33-5.77,4.64s.59,4.39,4.64,5.28c2.71.59,2.81.79,2.81,2.27s-.4,1.78-2.32,1.78c-1.63-.01-3.24-.28-4.78-.79l-.64,2.91c1.7.71,3.53,1.08,5.38,1.08,5.03,0,6.11-1.63,6.11-4.93M268.57,11.74c0,1.28-.84,2.12-2.71,2.12s-2.71-.79-2.71-2.12v-6.31c0-1.28.84-2.12,2.71-2.12s2.71.79,2.71,2.12v6.31ZM272.32,5.08c0-2.51-1.78-5.08-6.46-5.08s-6.46,2.56-6.46,5.08v6.95c0,2.51,1.78,5.08,6.46,5.08s6.46-2.56,6.46-5.08v-6.95ZM255.06,6.76c0,1.18-.34,1.82-2.02,1.82h-2.86V3.55h2.86c1.58,0,2.02.54,2.02,1.78v1.43ZM258.8,7.15v-2.17c0-3.11-1.48-4.73-5.57-4.73h-6.81v16.66h3.75v-5.03h2.86c4.04,0,5.77-1.58,5.77-4.68"/>
  <path id="Path_3" data-name="Path 3" class="cls-4" d="M234.64,8.88c0-1.68.69-2.66,2.66-2.66s2.56.94,2.56,2.66v.99h-5.23v-.99ZM234.64,12.68v-1.04h7.25v-2.56c0-2.51-.99-4.59-4.59-4.59s-4.78,2.02-4.78,4.54v3.65c0,2.76,1.23,4.49,4.83,4.49s3.16-.3,4.29-.69l-.3-1.68c-1.25.35-2.55.55-3.85.59-2.37,0-2.91-.79-2.91-2.71M229.11,17.16c.98,0,1.96-.13,2.91-.39l-.2-1.78c-.87.19-1.77.29-2.66.3-2.12,0-2.81-.59-2.81-2.51v-4c0-1.92.69-2.51,2.81-2.51.9-.08,1.8.02,2.66.3l.2-1.78c-.95-.26-1.93-.39-2.91-.39-3.8,0-4.83,1.63-4.83,4.44v3.85c0,2.81.94,4.44,4.83,4.44M223.1,16.92V7.6c0-1.87-.69-3.11-2.66-3.11-1.7.04-3.38.48-4.88,1.28l-.2-1.04h-1.68v12.18h2.12V7.69c1.27-.68,2.66-1.1,4.09-1.23.94,0,1.18.35,1.18,1.13v9.32h2.02ZM209.83,14.35c-.94.61-2.03.95-3.16.99-1.48,0-1.73-.49-1.73-1.73s.49-1.63,1.77-1.63h3.11v2.37ZM211.96,8.43c0-2.61-1.13-3.94-4.64-3.94s-2.86.25-3.99.54l.25,1.68c1.2-.24,2.42-.37,3.65-.39,1.97,0,2.66.54,2.66,2.07v1.93h-3.26c-2.47,0-3.75.89-3.75,3.4s.94,3.5,3.2,3.5c1.41.15,2.83-.26,3.95-1.13l.15.89h1.77v-8.53ZM202.98,4.48c-1.2.5-2.33,1.16-3.35,1.97l-.15-1.68h-1.83v12.19h2.12v-8.38c1.12-.79,2.29-1.49,3.5-2.12l-.3-1.92v-.05ZM186.26,4.73v9.32c0,1.87.69,3.11,2.66,3.11,1.7-.04,3.38-.48,4.88-1.28l.2,1.04h1.68V4.73h-2.12v9.22c-1.27.68-2.66,1.1-4.09,1.23-.94,0-1.18-.35-1.18-1.13V4.74h-2.02ZM184.98,13.61c0-2.42-.3-2.86-3.8-3.75-2.07-.49-2.07-.74-2.07-2.12s.25-1.53,2.07-1.53c1.13-.03,2.25.09,3.35.35l.15-1.73c-1.12-.31-2.29-.45-3.45-.44-3.2,0-4.19,1.04-4.19,3.25s.3,3.16,3.3,3.9c2.47.59,2.56.74,2.56,2.07s-.35,1.63-2.27,1.63c-1.19.05-2.37-.12-3.5-.49l-.3,1.63c1.26.43,2.57.65,3.9.64,3.5,0,4.19-1.13,4.19-3.55M175.51,16.91V7.59c0-1.87-.69-3.11-2.66-3.11-1.7.04-3.38.48-4.88,1.28l-.2-1.04h-1.68v12.18h2.12V7.69c1.27-.68,2.66-1.1,4.09-1.23.94,0,1.18.35,1.18,1.13v9.32h2.02ZM163.82.25h-2.17v16.67h2.17V.25Z"/>
  <g id="Group_2" data-name="Group 2">
    <path id="Path_4" data-name="Path 4" class="cls-3" d="M170.78,27.76h-10.75v-2.96h24.66v2.96h-10.75v30.28h-3.21v-30.28h.05Z"/>
    <path id="Path_5" data-name="Path 5" class="cls-3" d="M188.24,24.8h3.2v14.25h18v-14.25h3.21v33.24h-3.21v-16.08h-18v16.08h-3.2V24.8Z"/>
    <path id="Path_6" data-name="Path 6" class="cls-3" d="M218.86,24.8h19.83v2.96h-16.67v11.29h12.43v2.86h-12.43v13.22h17.6v2.91h-20.81V24.8h.05Z"/>
    <path id="Path_7" data-name="Path 7" class="cls-3" d="M162.79,61.79h11.54c7.5,0,11.29,3.11,11.29,8.33s-2.86,6.9-6.26,7.69v.1c4.14.74,7.35,3.3,7.35,8.09s-3.7,9.02-11.34,9.02h-12.53v-33.24h-.05ZM174.03,76.53c5.28,0,8.38-1.87,8.38-6.02s-2.56-5.87-8.29-5.87h-8.24v11.88h8.14ZM175.27,92.17c5.72,0,8.29-2.27,8.29-6.31s-3.55-6.51-9.27-6.51h-8.33v12.82h9.32Z"/>
    <path id="Path_8" data-name="Path 8" class="cls-3" d="M191.29,61.79h11.15c7.4,0,11.54,3.16,11.54,8.98s-3.16,8.09-7.94,8.98l8.38,15.29h-3.6l-8.14-14.89h-8.28v14.89h-3.16v-33.24h.05ZM202.19,77.27c5.47,0,8.58-1.58,8.58-6.36s-3.06-6.21-8.63-6.21h-7.74v12.57h7.79Z"/>
    <path id="Path_9" data-name="Path 9" class="cls-3" d="M219.6,61.79h3.21v33.24h-3.21v-33.24Z"/>
    <path id="Path_10" data-name="Path 10" class="cls-3" d="M237.55,64.75h-10.75v-2.96h24.66v2.96h-10.75v30.28h-3.21v-30.28h.05Z"/>
    <path id="Path_11" data-name="Path 11" class="cls-3" d="M255.45,61.79h3.21v33.24h-3.21v-33.24Z"/>
    <path id="Path_12" data-name="Path 12" class="cls-3" d="M263.74,86.84l2.81-1.04c1.48,4.64,4.83,7,9.52,7s8.23-2.27,8.23-6.02-1.68-5.23-8.73-7.45c-7.15-2.27-10.8-4.19-10.8-9.67s4.29-8.53,10.31-8.53,9.81,3.21,11.39,7.64l-2.71,1.23c-1.68-4.29-4.59-6.02-8.78-6.02s-7.15,2.37-7.15,5.43,2.22,4.98,9.22,7.25c6.9,2.22,10.31,4.49,10.31,9.86s-4.88,9.07-11.54,9.07-10.65-3.4-12.23-8.78h.15Z"/>
    <path id="Path_13" data-name="Path 13" class="cls-3" d="M292.29,61.79h3.21v14.25h18v-14.25h3.21v33.24h-3.21v-16.08h-18v16.08h-3.21v-33.24Z"/>
    <path id="Path_14" data-name="Path 14" class="cls-3" d="M163.23,98.73h3.2v33.24h-3.2v-33.24Z"/>
    <path id="Path_15" data-name="Path 15" class="cls-3" d="M173.14,98.73h3.4l18.35,27.37h.1v-27.37h3.01v33.24h-2.81l-18.89-28.26h-.1v28.26h-3.01v-33.24h-.05Z"/>
    <path id="Path_16" data-name="Path 16" class="cls-3" d="M202.59,123.83l2.81-1.04c1.48,4.64,4.83,7,9.52,7s8.24-2.27,8.24-6.02-1.68-5.23-8.73-7.45c-7.15-2.27-10.8-4.19-10.8-9.67s4.29-8.53,10.31-8.53,9.81,3.2,11.39,7.64l-2.71,1.23c-1.68-4.29-4.59-6.02-8.78-6.02s-7.15,2.37-7.15,5.42,2.22,4.98,9.22,7.25c6.9,2.22,10.31,4.49,10.31,9.86s-4.88,9.07-11.54,9.07-10.65-3.4-12.23-8.78h.15Z"/>
    <path id="Path_17" data-name="Path 17" class="cls-3" d="M230,120.77v-21.99h3.21v21.45c0,5.42,2.76,9.47,8.93,9.47s8.88-3.85,8.88-9.37v-21.55h3.21v21.9c0,6.61-4.04,11.89-12.13,11.89s-12.08-5.23-12.08-11.79Z"/>
    <path id="Path_18" data-name="Path 18" class="cls-3" d="M260.18,98.73h11.15c7.4,0,11.54,3.16,11.54,8.98s-3.16,8.09-7.94,8.98l8.38,15.29h-3.6l-8.14-14.89h-8.28v14.89h-3.16v-33.24h.05ZM271.09,114.26c5.47,0,8.58-1.58,8.58-6.36s-3.06-6.21-8.63-6.21h-7.74v12.58h7.79Z"/>
    <path id="Path_19" data-name="Path 19" class="cls-3" d="M296.73,98.63h3.45l11.79,33.39h-3.3l-3.55-10.26h-13.47l-3.55,10.26h-3.11l11.79-33.39h-.05ZM304.08,118.9l-5.72-16.52h-.1l-5.72,16.52h11.54Z"/>
    <path id="Path_20" data-name="Path 20" class="cls-3" d="M315.61,98.73h3.4l18.34,27.37h.1v-27.37h3.01v33.24h-2.81l-18.89-28.26h-.1v28.26h-3.01v-33.24h-.05Z"/>
    <path id="Path_21" data-name="Path 21" class="cls-3" d="M345.1,115.25c0-10.06,5.52-17.11,13.81-17.11s10.46,3.99,12.03,10.16l-3.06.74c-1.48-5.28-3.95-7.99-9.03-7.99s-10.6,5.57-10.6,14.1,4.24,14.6,10.7,14.6,8.04-2.86,9.47-8.43l3.06.69c-1.63,6.56-5.92,10.65-12.58,10.65s-13.81-6.8-13.81-17.36v-.05Z"/>
    <path id="Path_22" data-name="Path 22" class="cls-3" d="M375.88,98.73h19.83v2.96h-16.67v11.29h12.43v2.86h-12.43v13.22h17.6v2.91h-20.81v-33.24h.05Z"/>
    <path id="Path_23" data-name="Path 23" class="cls-3" d="M171.86,135.61h3.45l11.79,33.39h-3.3l-3.55-10.26h-13.47l-3.55,10.26h-3.11l11.79-33.39h-.05ZM179.26,155.88l-5.72-16.52h-.1l-5.72,16.52h11.54Z"/>
    <path id="Path_24" data-name="Path 24" class="cls-3" d="M186.02,135.71h3.26l5.18,20.17c.79,3.06,1.53,6.07,2.02,8.33h.1c.44-2.27,1.18-5.28,1.92-8.29l4.93-20.22h3.35l5.03,20.37c.74,3.01,1.43,5.62,1.87,8.14h.1c.59-2.66,1.23-5.03,1.92-7.99l5.23-20.52h3.06l-8.78,33.24h-3.01l-7.05-28.85h-.1l-7.15,28.85h-3.01l-8.83-33.24h-.05Z"/>
    <path id="Path_25" data-name="Path 25" class="cls-3" d="M234.69,135.61h3.45l11.79,33.39h-3.3l-3.55-10.26h-13.47l-3.55,10.26h-3.11l11.79-33.39h-.05ZM242.04,155.88l-5.72-16.52h-.1l-5.72,16.52h11.54Z"/>
    <path id="Path_26" data-name="Path 26" class="cls-3" d="M253.53,135.71h11.15c7.4,0,11.54,3.16,11.54,8.98s-3.16,8.09-7.94,8.98l8.38,15.29h-3.6l-8.14-14.89h-8.28v14.89h-3.16v-33.24h.05ZM264.43,151.25c5.47,0,8.58-1.58,8.58-6.36s-3.06-6.21-8.63-6.21h-7.74v12.58h7.79Z"/>
    <path id="Path_27" data-name="Path 27" class="cls-3" d="M281.44,135.71h8.38c10.8,0,16.52,5.62,16.52,16.57s-5.82,16.67-16.52,16.67h-8.38v-33.24ZM290.32,166.09c8.24,0,12.82-4.19,12.82-13.81s-4.68-13.61-12.92-13.61h-5.62v27.37h5.72v.05Z"/>
    <path id="Path_28" data-name="Path 28" class="cls-3" d="M308.91,160.81l2.81-1.04c1.48,4.64,4.83,7,9.52,7s8.24-2.27,8.24-6.02-1.68-5.23-8.73-7.45c-7.15-2.27-10.8-4.19-10.8-9.67s4.29-8.53,10.31-8.53,9.81,3.2,11.39,7.64l-2.71,1.23c-1.68-4.29-4.59-6.02-8.78-6.02s-7.15,2.37-7.15,5.42,2.22,4.98,9.22,7.25c6.9,2.22,10.31,4.49,10.31,9.86s-4.88,9.07-11.54,9.07-10.65-3.4-12.23-8.78h.15Z"/>
    <path id="Path_29" data-name="Path 29" class="cls-1" d="M343.28,168.26c0-4.78,2.37-9.22,11.15-14.84,4.98-3.21,7-5.42,7-9.02s-2.42-6.46-6.81-6.46-6.26,1.87-8.28,5.77l-2.52-1.48c2.32-4.49,6.02-7.1,10.9-7.1s9.76,3.75,9.76,9.12-2.22,7.4-8.58,11.44c-6.02,3.8-8.93,7.4-9.17,10.4h17.85v2.86h-21.35v-.74l.05.05Z"/>
    <path id="Path_30" data-name="Path 30" class="cls-1" d="M367.25,152.33c0-10.36,4.39-17.26,12.23-17.26s12.13,6.86,12.13,17.26-4.29,17.26-12.13,17.26-12.23-6.85-12.23-17.26ZM388.45,152.33c0-9.37-3.55-14.4-8.97-14.4s-9.03,5.03-9.03,14.4,3.55,14.45,9.03,14.45,8.97-5.08,8.97-14.45h0Z"/>
    <path id="Path_31" data-name="Path 31" class="cls-1" d="M393.53,168.26c0-4.78,2.37-9.22,11.15-14.84,4.98-3.21,7-5.42,7-9.02s-2.42-6.46-6.8-6.46-6.26,1.87-8.28,5.77l-2.52-1.48c2.32-4.49,6.02-7.1,10.9-7.1s9.76,3.75,9.76,9.12-2.22,7.4-8.58,11.44c-6.02,3.8-8.93,7.4-9.17,10.4h17.85v2.86h-21.35v-.74l.05.05Z"/>
    <path id="Path_37" data-name="Path 37" class="cls-1" d="M416.71,152.33c0-10.36,4.39-17.26,12.23-17.26s12.13,6.86,12.13,17.26-4.29,17.26-12.13,17.26-12.23-6.85-12.23-17.26ZM437.92,152.33c0-9.37-3.55-14.4-8.97-14.4s-9.03,5.03-9.03,14.4,3.55,14.45,9.03,14.45,8.97-5.08,8.97-14.45h0Z"/>
  </g>
  <path id="Path_33" data-name="Path 33" class="cls-2" d="M62,43.8l29.12-29.12,29.12,29.12-29.12,29.12-29.12-29.12Z"/>
  <path id="Path_34" data-name="Path 34" class="cls-5" d="M62,29.16L91.12.04l29.12,29.12-29.12,29.12-29.12-29.12Z"/>
  <path id="Path_35" data-name="Path 35" class="cls-5" d="M58.78,47l94.93,94.78-27.52,65.34L58.78,47Z"/>
  <path id="Path_36" data-name="Path 36" class="cls-2" d="M123.43,47l-52.57,123.48-70.87-1.18L123.43,47Z"/>
</svg>