<?xml version="1.0" encoding="UTF-8"?>
<svg id="Component_9_1" data-name="Component 9 1" xmlns="http://www.w3.org/2000/svg" viewBox="0 0 424.8 136.86">
  <defs>
    <style>
      .cls-1 {
        fill: #1b2029;
      }

      .cls-2 {
        fill: #e81f71;
      }

      .cls-3 {
        isolation: isolate;
      }
    </style>
  </defs>
  <g id="Group_1" data-name="Group 1">
    <path id="path2" class="cls-2" d="M52.23,0h-.18l-27.84,2c-.63.05-1.22.31-1.67.75L3.15,21.68c-.46.44-.74,1.03-.79,1.67L0,49.65c-.04.55.08,1.11.36,1.59l10.09,17.26c.1.17.22.33.36.48l15.84,16.91.3.27,19.88,15.71,25.49,22.77c1.01.87,2.51.87,3.53,0l25.45-22.77,19.91-15.74c.11-.08.21-.16.3-.26l15.85-16.91c.13-.15.26-.31.36-.48l10.09-17.26c.28-.48.41-1.04.36-1.59l-2.35-26.28c-.06-.63-.34-1.22-.79-1.67L125.63,2.75c-.45-.43-1.03-.69-1.65-.75l-27.84-2h-.2c-.64,0-1.25.24-1.73.66l-20.09,17.46L53.96.66c-.48-.42-1.09-.64-1.72-.63v-.02ZM52.5,4.3l.2.56-.2-.56ZM98.1,4.43l20.34,1.46-16.76,9.1-3.58-10.56ZM95.4,4.47h.04l-.04.62v-.63h0ZM49.59,4.47l-5.65,10.55-14.74-9.1,20.38-1.45h0ZM52.67,5.16l16.44,14.25-2.43-.38-8.3-1.28-11.51-1.75,5.8-10.84ZM95.22,5.4l3.6,10.57-19.62,3.33,16.02-13.9ZM27.94,5.44l.04.49-.04-.49ZM123.51,6.63l15.19,14.83-33.16-5.09,17.98-9.74ZM24.61,6.67l15.62,9.67-30.69,5.06,15.06-14.73ZM42.26,19.1l-10.03,29.71L8.16,24.72l34.09-5.62ZM103.28,19.1l36.68,5.63-24.16,24.18-12.52-29.82ZM47.33,19.16l24.46,3.74-10.72,21.3-13.73-25.04ZM98.24,19.16l-11.27,24.8-10.58-21.08,21.85-3.72ZM44.84,20.96l13.9,25.34-23.6,3.45,9.7-28.78ZM100.77,20.96l12.04,28.74c-.12,0-.2-.04-.36-.06l-2.8-.4-8.52-1.25-11.87-1.73,11.5-25.3ZM6.21,27.07l22.79,22.78-3.07-.16-8.93-.48-12.7-.69,1.91-21.46ZM141.95,27.07l1.91,21.46c-.5,0-6.43.34-12.71.67l-8.92.49-3.06.16,22.78-22.78ZM74.04,27.12c.06-.01.12.02.14.08l10.71,21.9c.14.28.41.47.71.53l23.98,3.5h.02s.1.06.12.1c.02.06,0,.13-.04.18l-17.35,17.03c-.23.21-.33.53-.28.84l4.11,24.07c0,.06-.02.12-.06.16-.12.04-.12.04-.17,0l-21.43-11.34c-.13-.08-.28-.12-.44-.12-.16,0-.32.04-.46.12l-21.43,11.34c-.09.04-.15.04-.16,0-.06-.03-.09-.09-.09-.16l4.09-24.06c.04-.3-.05-.61-.26-.84h-.02l-17.35-17.03c-.03-.05-.05-.12-.04-.18.02-.05.07-.09.12-.1h.02l23.98-3.5c.31-.06.58-.25.72-.53l10.73-21.9s.08-.08.14-.08h0ZM4.68,50.96v.04-.04ZM5.4,51.63l11.92.63,11.4.62-15.54,12.04-7.78-13.3ZM142.76,51.63l-7.78,13.3-15.54-12.04,23.32-1.25ZM118.36,52.32l.02.56-.02-.56ZM33.72,53.75h0ZM116.75,53.93h0ZM34,54.83l16.73,16.42-20.24,10.22,3.51-26.64ZM114.17,54.83l3.52,26.64-20.26-10.22,16.74-16.42ZM30.9,55.08l-3.38,25.7-12.51-13.38,15.9-12.33ZM117.27,55.08l15.9,12.32-12.51,13.37-3.39-25.7ZM51.31,74.38l-3.84,22.77-16.06-12.71,19.9-10.05ZM96.84,74.38l19.91,10.05-16.07,12.72-3.84-22.77ZM72.57,89.07v30.27l-21.37-19.08,21.37-11.19ZM75.59,89.07l21.37,11.19-21.37,19.08v-30.27Z"/>
    <g id="g10">
      <path id="path4" class="cls-1" d="M303.26,107.45c-6.55,0-11.57-1.87-15.05-5.6-3.4-3.73-5.1-9-5.1-15.8v-46.78c0-6.8,1.7-12.07,5.1-15.8,3.48-3.73,8.5-5.6,15.05-5.6s11.53,1.87,14.93,5.6c3.48,3.73,5.22,9,5.22,15.8v9.2h-12.93v-10.08c0-5.39-2.28-8.09-6.84-8.09s-6.84,2.69-6.84,8.09v48.64c0,5.31,2.28,7.96,6.84,7.96s6.84-2.65,6.84-7.96v-13.31h12.93v12.31c0,6.8-1.74,12.07-5.22,15.8-3.4,3.73-8.38,5.6-14.93,5.6M342.82,61.66l-15.06-42.55h14.43l9.21,28.12h.25l9.46-28.12h12.93l-15.05,42.55,15.8,44.54h-14.43l-9.95-30.36h-.25l-10.2,30.36h-12.94l15.8-44.54ZM392.09,19.12h18.54l14.18,87.08h-13.69l-2.49-17.29v.25h-15.55l-2.49,17.05h-12.69l14.2-87.09ZM407.02,77.34l-6.1-43.04h-.25l-5.97,43.04h12.31Z"/>
      <path id="path6" class="cls-1" d="M201.43,107.44c-6.73,0-11.86-1.89-15.39-5.68-3.53-3.87-5.3-9.38-5.3-16.53V17.87h13.88v68.38c0,3.03.59,5.21,1.76,6.56,1.39,1.4,3.32,2.13,5.29,2.02,1.94.13,3.84-.61,5.17-2.02,1.27-1.35,1.9-3.53,1.9-6.56V17.87h13.37v67.37c0,7.15-1.77,12.66-5.3,16.53-3.53,3.79-8.66,5.68-15.39,5.68h.01ZM231.96,17.87h13.87v37.21l17.66-37.21h13.88l-16.53,32.43,16.78,55.89h-14.51l-11.74-39.36-5.55,11.23v28.14h-13.88l.02-88.32Z"/>
    </g>
  </g>
  <g id="UK_CUSTOMER_EXPERIENCE_AWARDS" data-name="UK CUSTOMER EXPERIENCE AWARDS" class="cls-3">
    <g class="cls-3">
      <path class="cls-1" d="M181.54,128.52v-12.17h2.51v12.36c0,1.14.48,1.55,1.28,1.55s1.28-.41,1.28-1.55v-12.36h2.42v12.17c0,2.55-1.28,4.01-3.74,4.01s-3.74-1.46-3.74-4.01Z"/>
      <path class="cls-1" d="M190.8,116.34h2.51v6.73l3.19-6.73h2.51l-2.99,5.86,3.03,10.1h-2.62l-2.12-7.11-1,2.03v5.08h-2.51v-15.96Z"/>
      <path class="cls-1" d="M203.73,128.61v-8.57c0-2.46,1.28-3.92,3.69-3.92s3.69,1.46,3.69,3.92v1.69h-2.37v-1.85c0-1.05-.5-1.48-1.25-1.48s-1.25.43-1.25,1.48v8.91c0,1.05.5,1.46,1.25,1.46s1.25-.41,1.25-1.46v-2.44h2.37v2.26c0,2.46-1.28,3.92-3.69,3.92s-3.69-1.46-3.69-3.92Z"/>
      <path class="cls-1" d="M212.53,128.52v-12.17h2.51v12.36c0,1.14.48,1.55,1.28,1.55s1.28-.41,1.28-1.55v-12.36h2.42v12.17c0,2.55-1.28,4.01-3.74,4.01s-3.74-1.46-3.74-4.01Z"/>
      <path class="cls-1" d="M221.35,128.52v-.91h2.37v1.09c0,1.14.5,1.55,1.3,1.55s1.3-.41,1.3-1.6c0-1.32-.5-2.17-2.14-3.6-2.1-1.85-2.78-3.15-2.78-4.97,0-2.51,1.3-3.97,3.74-3.97s3.65,1.46,3.65,4.01v.66h-2.37v-.82c0-1.14-.46-1.57-1.25-1.57s-1.25.43-1.25,1.53c0,1.16.52,2.01,2.17,3.44,2.1,1.85,2.76,3.12,2.76,5.11,0,2.6-1.32,4.06-3.78,4.06s-3.69-1.46-3.69-4.01Z"/>
      <path class="cls-1" d="M232.22,118.62h-2.62v-2.28h7.75v2.28h-2.62v13.68h-2.51v-13.68Z"/>
      <path class="cls-1" d="M238.29,128.52v-8.39c0-2.55,1.34-4.01,3.81-4.01s3.81,1.46,3.81,4.01v8.39c0,2.55-1.35,4.01-3.81,4.01s-3.81-1.46-3.81-4.01ZM243.4,128.68v-8.71c0-1.14-.5-1.57-1.3-1.57s-1.3.43-1.3,1.57v8.71c0,1.14.5,1.57,1.3,1.57s1.3-.43,1.3-1.57Z"/>
      <path class="cls-1" d="M247.59,116.34h3.58l1.6,11.42h.05l1.6-11.42h3.58v15.96h-2.37v-12.08h-.05l-1.82,12.08h-2.1l-1.82-12.08h-.05v12.08h-2.19v-15.96Z"/>
      <path class="cls-1" d="M259.86,116.34h6.84v2.28h-4.33v4.22h3.44v2.28h-3.44v4.9h4.33v2.28h-6.84v-15.96Z"/>
      <path class="cls-1" d="M268.13,116.34h3.72c2.6,0,3.72,1.21,3.72,3.67v.98c0,1.64-.52,2.69-1.64,3.15v.05c1.25.39,1.66,1.57,1.66,3.37v2.8c0,.77.02,1.34.27,1.94h-2.55c-.14-.41-.23-.66-.23-1.96v-2.92c0-1.48-.43-1.96-1.57-1.96h-.87v6.84h-2.51v-15.96ZM271.55,123.18c.93,0,1.5-.41,1.5-1.69v-1.23c0-1.14-.39-1.64-1.28-1.64h-1.14v4.56h.91Z"/>
      <path class="cls-1" d="M280.97,116.34h6.84v2.28h-4.33v4.22h3.44v2.28h-3.44v4.9h4.33v2.28h-6.84v-15.96Z"/>
      <path class="cls-1" d="M291.5,124.14l-2.76-7.8h2.64l1.69,5.15h.05l1.73-5.15h2.37l-2.76,7.8,2.9,8.16h-2.64l-1.82-5.56h-.05l-1.87,5.56h-2.37l2.9-8.16Z"/>
      <path class="cls-1" d="M298.55,116.34h3.69c2.51,0,3.74,1.39,3.74,3.94v1.57c0,2.55-1.23,3.94-3.74,3.94h-1.19v6.5h-2.51v-15.96ZM302.24,123.53c.8,0,1.23-.37,1.23-1.5v-1.89c0-1.14-.43-1.5-1.23-1.5h-1.19v4.9h1.19Z"/>
      <path class="cls-1" d="M307.35,116.34h6.84v2.28h-4.33v4.22h3.44v2.28h-3.44v4.9h4.33v2.28h-6.84v-15.96Z"/>
      <path class="cls-1" d="M315.63,116.34h3.72c2.6,0,3.72,1.21,3.72,3.67v.98c0,1.64-.52,2.69-1.64,3.15v.05c1.25.39,1.66,1.57,1.66,3.37v2.8c0,.77.02,1.34.27,1.94h-2.55c-.14-.41-.23-.66-.23-1.96v-2.92c0-1.48-.43-1.96-1.57-1.96h-.87v6.84h-2.51v-15.96ZM319.04,123.18c.93,0,1.5-.41,1.5-1.69v-1.23c0-1.14-.39-1.64-1.28-1.64h-1.14v4.56h.91Z"/>
      <path class="cls-1" d="M324.81,116.34h2.51v15.96h-2.51v-15.96Z"/>
      <path class="cls-1" d="M329.19,116.34h6.84v2.28h-4.33v4.22h3.44v2.28h-3.44v4.9h4.33v2.28h-6.84v-15.96Z"/>
      <path class="cls-1" d="M337.47,116.34h3.15l2.44,9.55h.05v-9.55h2.23v15.96h-2.58l-3.01-11.65h-.05v11.65h-2.23v-15.96Z"/>
      <path class="cls-1" d="M347.04,128.61v-8.57c0-2.46,1.28-3.92,3.69-3.92s3.69,1.46,3.69,3.92v1.69h-2.37v-1.85c0-1.05-.5-1.48-1.25-1.48s-1.25.43-1.25,1.48v8.91c0,1.05.5,1.46,1.25,1.46s1.25-.41,1.25-1.46v-2.44h2.37v2.26c0,2.46-1.28,3.92-3.69,3.92s-3.69-1.46-3.69-3.92Z"/>
      <path class="cls-1" d="M355.94,116.34h6.84v2.28h-4.33v4.22h3.44v2.28h-3.44v4.9h4.33v2.28h-6.84v-15.96Z"/>
      <path class="cls-1" d="M369.8,116.34h3.4l2.6,15.96h-2.51l-.46-3.17v.05h-2.85l-.46,3.12h-2.33l2.6-15.96ZM372.53,127.01l-1.12-7.89h-.05l-1.09,7.89h2.26Z"/>
      <path class="cls-1" d="M376.09,116.34h2.42l1.12,12.26h.05l1.19-12.26h2.74l1.19,12.26h.04l1.12-12.26h2.17l-1.62,15.96h-3.12l-1.14-10.76h-.04l-1.14,10.76h-3.33l-1.62-15.96Z"/>
      <path class="cls-1" d="M391,116.34h3.4l2.6,15.96h-2.51l-.46-3.17v.05h-2.85l-.46,3.12h-2.33l2.6-15.96ZM393.74,127.01l-1.12-7.89h-.05l-1.09,7.89h2.26Z"/>
      <path class="cls-1" d="M398.2,116.34h3.72c2.6,0,3.72,1.21,3.72,3.67v.98c0,1.64-.52,2.69-1.64,3.15v.05c1.25.39,1.66,1.57,1.66,3.37v2.8c0,.77.02,1.34.27,1.94h-2.55c-.14-.41-.23-.66-.23-1.96v-2.92c0-1.48-.43-1.96-1.57-1.96h-.87v6.84h-2.51v-15.96ZM401.62,123.18c.93,0,1.5-.41,1.5-1.69v-1.23c0-1.14-.39-1.64-1.28-1.64h-1.14v4.56h.91Z"/>
      <path class="cls-1" d="M407.39,116.34h3.83c2.51,0,3.74,1.39,3.74,3.94v8.07c0,2.55-1.23,3.94-3.74,3.94h-3.83v-15.96ZM411.18,130.02c.8,0,1.28-.41,1.28-1.55v-8.3c0-1.14-.48-1.55-1.28-1.55h-1.28v11.4h1.28Z"/>
      <path class="cls-1" d="M416.22,128.52v-.91h2.37v1.09c0,1.14.5,1.55,1.3,1.55s1.3-.41,1.3-1.6c0-1.32-.5-2.17-2.14-3.6-2.1-1.85-2.78-3.15-2.78-4.97,0-2.51,1.3-3.97,3.74-3.97s3.65,1.46,3.65,4.01v.66h-2.37v-.82c0-1.14-.46-1.57-1.25-1.57s-1.25.43-1.25,1.53c0,1.16.52,2.01,2.17,3.44,2.1,1.85,2.76,3.12,2.76,5.11,0,2.6-1.32,4.06-3.78,4.06s-3.69-1.46-3.69-4.01Z"/>
    </g>
  </g>
</svg>