<?xml version="1.0" encoding="UTF-8"?>
<svg id="Component_6_1" data-name="Component 6 1" xmlns="http://www.w3.org/2000/svg" viewBox="0 0 364.84 174.36">
  <defs>
    <style>
      .cls-1 {
        fill: #1b2029;
      }

      .cls-2 {
        isolation: isolate;
      }

      .cls-3 {
        fill: #fff;
      }

      .cls-4 {
        fill: #1c2028;
      }

      .cls-5 {
        fill: #8c171a;
      }
    </style>
  </defs>
  <g id="awards" class="cls-2">
    <g class="cls-2">
      <path class="cls-1" d="M39.1,149.46c-2.53.93-4.57,1.57-6.1,1.9-1.53.33-3.2.5-5,.5-7.4,0-13.55-2.38-18.45-7.15-4.9-4.77-7.35-10.72-7.35-17.85s2.48-13.28,7.45-18.25c4.97-4.97,11.08-7.45,18.35-7.45s13.57,2.5,18.1,7.5c4.53,5,6.8,11.67,6.8,20v22.4h-8.7v-22.1c0-5.67-1.55-10.32-4.65-13.95-3.1-3.63-7.08-5.45-11.95-5.45-4.53,0-8.42,1.68-11.65,5.05-3.23,3.37-4.85,7.38-4.85,12.05s1.72,8.92,5.15,12.15c3.43,3.23,7.68,4.85,12.75,4.85,1.87,0,3.42-.17,4.65-.5,1.23-.33,3.05-1.17,5.45-2.5v8.8Z"/>
      <path class="cls-1" d="M93.5,145.16c-1.47,2.54-3.15,4.29-5.05,5.25-1.9.97-4.65,1.45-8.25,1.45-5.67,0-10.2-1.73-13.6-5.2-3.4-3.46-5.1-8.13-5.1-14v-29.9h8.7v30.2c0,2.73.97,5.2,2.9,7.4,1.93,2.2,4.17,3.3,6.7,3.3s4.6-1.07,6.4-3.2c1.8-2.13,2.7-4.67,2.7-7.6v-30.1h9.4v30.1c0,2.87.88,5.38,2.65,7.55,1.77,2.17,3.82,3.25,6.15,3.25,2.6,0,4.9-1.07,6.9-3.2,2-2.13,3-4.63,3-7.5v-30.2h8.6v29.9c0,5.93-1.68,10.62-5.05,14.05-3.37,3.43-7.95,5.15-13.75,5.15-4.27,0-7.8-1.13-10.6-3.4-.8-.73-1.7-1.83-2.7-3.3Z"/>
      <path class="cls-1" d="M169.1,149.46c-2.53.93-4.57,1.57-6.1,1.9-1.53.33-3.2.5-5,.5-7.4,0-13.55-2.38-18.45-7.15-4.9-4.77-7.35-10.72-7.35-17.85s2.48-13.28,7.45-18.25c4.97-4.97,11.08-7.45,18.35-7.45s13.57,2.5,18.1,7.5c4.53,5,6.8,11.67,6.8,20v22.4h-8.7v-22.1c0-5.67-1.55-10.32-4.65-13.95-3.1-3.63-7.08-5.45-11.95-5.45-4.53,0-8.42,1.68-11.65,5.05-3.23,3.37-4.85,7.38-4.85,12.05s1.72,8.92,5.15,12.15c3.43,3.23,7.68,4.85,12.75,4.85,1.87,0,3.42-.17,4.65-.5,1.23-.33,3.05-1.17,5.45-2.5v8.8Z"/>
      <path class="cls-1" d="M191.5,151.06v-31.2c0-4.93,1.73-9.17,5.2-12.7,3.46-3.53,7.67-5.3,12.6-5.3h2.4v8h-1.6c-2.87,0-5.23.97-7.1,2.91-1.87,1.94-2.8,4.48-2.8,7.62v30.67h-8.7Z"/>
      <path class="cls-1" d="M248.9,103.86v9c-2.13-.93-3.87-1.57-5.2-1.9-1.33-.33-2.77-.5-4.3-.5-5.13,0-9.47,1.6-13,4.8-3.53,3.2-5.3,7.2-5.3,12,0,4.47,1.6,8.3,4.8,11.5s7.07,4.8,11.6,4.8,8.71-1.75,11.95-5.25c3.23-3.5,4.85-7.85,4.85-13.05v-46.3h8.6v46.4c0,8.07-2.23,14.5-6.7,19.3-4.47,4.8-10.5,7.2-18.1,7.2s-13.67-2.33-18.4-7c-4.73-4.67-7.1-10.67-7.1-18s2.42-13.42,7.25-18.05c4.83-4.63,11.05-6.95,18.65-6.95,1.8,0,3.37.13,4.7.4,1.33.27,3.23.8,5.7,1.6Z"/>
      <path class="cls-1" d="M270.2,138.06l8.7.2c0,1.5.43,2.71,1.3,3.63.87.92,2.07,1.37,3.6,1.37s2.97-.53,4.1-1.58c1.13-1.06,1.7-2.38,1.7-3.96,0-1.98-.87-3.57-2.6-4.75l-9.9-6.5c-4-2.79-6-6.47-6-11.05,0-3.65,1.38-6.82,4.15-9.51,2.77-2.69,5.98-4.03,9.65-4.03,4.27,0,7.8,1.82,10.6,5.46.73.86,1.32,1.82,1.75,2.88.43,1.06.75,2.38.95,3.97l-8.6-.2c-.72-2.74-2.32-4.1-4.8-4.1-1.37,0-2.58.5-3.63,1.49-1.05.99-1.57,2.22-1.57,3.67,0,1.79.96,3.31,2.88,4.57l8.99,6.02c4.15,2.73,6.23,6.66,6.23,11.78,0,3.93-1.37,7.32-4.1,10.18-2.73,2.86-6,4.29-9.8,4.29-3.53,0-6.7-1.4-9.5-4.2-1.2-1.2-2.1-2.48-2.7-3.85-.6-1.37-1.07-3.28-1.4-5.75Z"/>
    </g>
  </g>
  <path id="Path_38" data-name="Path 38" class="cls-5" d="M318.07,0c25.95.12,46.89,21.26,46.77,47.21-.12,25.78-20.99,46.65-46.77,46.77h-46.99v-46.99C271.08,21.04,292.12,0,318.07,0Z"/>
  <g id="insurance-times-logo-vector">
    <path id="Path_39" data-name="Path 39" class="cls-5" d="M184.41,44.99c.13,3.26,1.98,5.31,5.24,5.31,1.84.13,3.58-.88,4.37-2.55h7.16c-1.44,5.41-6.38,7.76-11.63,7.76-7.63,0-12.8-4.6-12.8-12.43,0-7.16,5.71-12.3,12.63-12.3,8.37,0,12.57,6.32,12.2,14.25h-17.17v-.03ZM193.92,40.69c.04-2.56-1.98-4.68-4.54-4.77-2.72,0-4.47,1.88-4.97,4.77h9.51ZM175.17,39.98c-.57-6.12-5.68-9.24-11.52-9.24-7.53,0-12.27,5.31-12.27,12.77s5.24,12,12.26,12c6.25,0,11.06-3.56,11.76-9.88h-7.43c-.37,2.52-1.68,4-4.37,4-3.26,0-4.54-3.12-4.54-6.12,0-3.26.67-6.89,4.94-6.89,1.97-.09,3.63,1.43,3.73,3.39h7.43v-.04ZM126.81,54.8h7.66v-12.77c0-2.52,1.28-5.01,4.13-5.01,3.06,0,3.83,1.85,3.83,4.1v13.68h7.66v-15.02c0-3.39-.64-9.07-8.43-9.07-2.94,0-5.69,1.44-7.36,3.86h-.1v-3.19h-7.43v23.42h.03ZM102.49,38.63c-.02-2.6,1.39-5,3.66-6.25,2.3-1.17,4.85-1.72,7.43-1.61,5.54,0,10.92,1.21,10.92,7.83v10.22c-.15,2.04.16,4.08.91,5.98h-7.7c-.23-.72-.38-1.46-.44-2.22-2.05,1.99-4.84,3.03-7.69,2.89-4.5,0-7.96-2.25-7.96-7.09,0-7.56,8.3-7.02,13.61-8.1,1.31-.3,2.02-.71,2.02-2.15,0-1.75-2.12-2.42-3.7-2.42-2.22,0-3.46,1.01-3.83,2.92h-7.22ZM112.4,50.74c3.66,0,4.87-2.02,4.67-6.89-1.07.67-3.06.77-4.74,1.28-1.75.4-3.16,1.14-3.16,2.99.03,1.91,1.44,2.62,3.23,2.62M85.22,54.8h7.66v-11.6c-.09-2.97,2.24-5.46,5.21-5.56.19,0,.38,0,.57.01.99,0,1.98.14,2.92.44v-6.99c-.6-.12-1.2-.18-1.81-.17-3.29,0-5.91,1.55-7.02,4.54h-.1v-4.1h-7.43v23.43ZM82.96,31.41h-7.66v12.53c0,4.13-2.55,5.24-4.2,5.24-2.49,0-3.8-1.07-3.8-4.2v-13.58h-7.63v14.05c0,6.12,1.95,10.01,8.64,10.01,2.87-.03,5.54-1.47,7.12-3.86h.1v3.19h7.43v-23.39ZM35.55,47.11c.24,6.52,5.85,8.37,11.46,8.37,5.28,0,11.22-2.08,11.22-8.33,0-1.95-1.28-5.38-5.95-6.32-3.53-.71-8.64-1.21-8.64-3.39,0-1.61,2.02-1.75,3.29-1.75.85-.06,1.69.14,2.42.57.69.43,1.08,1.21,1.01,2.02h7.09c-.24-6.08-5.68-7.56-10.75-7.56-4.6,0-10.68,1.58-10.68,7.16,0,6.32,6.05,6.45,10.85,7.66,1.31.37,3.73.64,3.73,2.49s-2.15,2.49-3.6,2.49c-1,.04-1.99-.25-2.82-.81-.84-.6-1.32-1.59-1.28-2.62h-7.36v.03ZM10.75,54.8h7.66v-12.77c0-2.52,1.28-5.01,4.13-5.01,3.06,0,3.83,1.85,3.83,4.1v13.68h7.66v-15.02c0-3.39-.64-9.07-8.43-9.07-2.94,0-5.69,1.44-7.36,3.86h-.1v-3.19h-7.43v23.42h.03ZM.03,54.8h8.37V22.61H.03v32.2Z"/>
    <path id="Path_40" data-name="Path 40" class="cls-4" d="M24.76,68.34h-8.2v24.97h-8.36v-24.97H0v-7.22h24.76v7.22ZM34.27,61.15h-7.66v5.85h7.66v-5.85ZM26.61,93.31h7.66v-23.39h-7.66v23.39ZM36.12,93.31h7.66v-11.39c0-4.74,1.18-6.35,3.93-6.35,2.12,0,2.89,1.71,2.89,4.47v13.31h7.66v-11.46c0-3.8.3-6.32,3.6-6.32,1.98,0,3.19,1.48,3.19,4v13.74h7.66v-13.98c0-4.47-.81-10.08-8.23-10.08-2.93-.09-5.69,1.35-7.29,3.8-1.28-2.82-3.86-3.8-6.79-3.8-2.77,0-5.32,1.48-6.72,3.86h-.1v-3.2h-7.43v23.39h-.04ZM98.86,83.49c.37-7.93-3.83-14.25-12.2-14.25-6.79-.19-12.44,5.16-12.63,11.95,0,.12,0,.23,0,.35,0,7.83,5.17,12.43,12.8,12.43,5.24,0,10.18-2.35,11.63-7.76h-7.15c-.79,1.67-2.52,2.68-4.37,2.55-3.26,0-5.11-2.08-5.24-5.31h17.17v.03ZM81.69,79.23c.5-2.89,2.25-4.77,4.97-4.77,2.56.09,4.58,2.21,4.54,4.77h-9.51ZM99.12,85.61c.24,6.52,5.85,8.37,11.46,8.37,5.27,0,11.22-2.08,11.22-8.33,0-1.95-1.28-5.38-5.95-6.32-3.53-.71-8.64-1.21-8.64-3.39,0-1.61,2.02-1.75,3.29-1.75.85-.06,1.69.14,2.42.57.69.43,1.08,1.21,1.01,2.02h7.09c-.23-6.08-5.68-7.56-10.75-7.56-4.6,0-10.69,1.58-10.69,7.16,0,6.32,6.05,6.45,10.85,7.66,1.31.37,3.73.64,3.73,2.49s-2.15,2.49-3.6,2.49c-1,.04-1.99-.25-2.82-.81-.84-.6-1.32-1.59-1.28-2.62h-7.36v.03Z"/>
  </g>
  <g id="_2020" data-name=" 2020" class="cls-2">
    <g class="cls-2">
      <path class="cls-3" d="M286.92,56.85h8.42v3.21h-15.19l7.85-9.51c.77-.95,1.42-1.77,1.94-2.46s.92-1.27,1.19-1.74c.56-.92.83-1.74.83-2.48,0-1.05-.37-1.94-1.11-2.65s-1.66-1.07-2.75-1.07c-2.29,0-3.59,1.35-3.93,4.06h-3.4c.55-4.77,2.95-7.15,7.22-7.15,2.06,0,3.79.65,5.19,1.96,1.41,1.31,2.11,2.93,2.11,4.86,0,1.23-.33,2.44-.98,3.62-.33.62-.82,1.35-1.46,2.19s-1.45,1.84-2.42,3l-3.52,4.16Z"/>
      <path class="cls-3" d="M299.19,48.61c0-3.6.84-6.48,2.52-8.63,1.5-1.94,3.32-2.92,5.46-2.92s3.96.97,5.46,2.92c1.68,2.15,2.52,5.07,2.52,8.77s-.84,6.61-2.52,8.76c-1.5,1.94-3.32,2.92-5.45,2.92s-3.96-.97-5.48-2.92c-1.68-2.15-2.52-5.12-2.52-8.91ZM302.54,48.62c0,2.51.43,4.59,1.3,6.25.87,1.63,1.98,2.45,3.32,2.45s2.45-.82,3.33-2.45c.88-1.62,1.32-3.67,1.32-6.14s-.44-4.52-1.32-6.15c-.88-1.62-1.99-2.43-3.33-2.43s-2.43.81-3.31,2.43c-.88,1.61-1.32,3.62-1.32,6.04Z"/>
      <path class="cls-3" d="M323.95,56.85h8.42v3.21h-15.19l7.85-9.51c.77-.95,1.42-1.77,1.94-2.46s.92-1.27,1.19-1.74c.56-.92.83-1.74.83-2.48,0-1.05-.37-1.94-1.11-2.65s-1.66-1.07-2.75-1.07c-2.29,0-3.59,1.35-3.93,4.06h-3.4c.55-4.77,2.95-7.15,7.22-7.15,2.06,0,3.79.65,5.19,1.96,1.41,1.31,2.11,2.93,2.11,4.86,0,1.23-.33,2.44-.98,3.62-.33.62-.82,1.35-1.46,2.19s-1.45,1.84-2.42,3l-3.52,4.16Z"/>
      <path class="cls-3" d="M336.22,48.61c0-3.6.84-6.48,2.52-8.63,1.5-1.94,3.32-2.92,5.46-2.92s3.96.97,5.46,2.92c1.68,2.15,2.52,5.07,2.52,8.77s-.84,6.61-2.52,8.76c-1.5,1.94-3.32,2.92-5.45,2.92s-3.96-.97-5.48-2.92c-1.68-2.15-2.52-5.12-2.52-8.91ZM339.58,48.62c0,2.51.43,4.59,1.3,6.25.87,1.63,1.98,2.45,3.32,2.45s2.45-.82,3.33-2.45c.88-1.62,1.32-3.67,1.32-6.14s-.44-4.52-1.32-6.15c-.88-1.62-1.99-2.43-3.33-2.43s-2.43.81-3.31,2.43c-.88,1.61-1.32,3.62-1.32,6.04Z"/>
    </g>
  </g>
</svg>