<?xml version="1.0" encoding="UTF-8"?>
<svg id="Layer_1" data-name="Layer 1" xmlns="http://www.w3.org/2000/svg" viewBox="0 0 379.39 200.48">
  <defs>
    <style>
      .cls-1 {
        isolation: isolate;
      }

      .cls-2 {
        fill: #1c2028;
      }
    </style>
  </defs>
  <g id="Component_8_1" data-name="Component 8 1">
    <g id="UK_IT_INDUSTRY_AWARDS" data-name="UK IT INDUSTRY AWARDS" class="cls-1">
      <g class="cls-1">
        <path class="cls-2" d="M59.61,13.42c-.66.07-1.61.22-2.85.46-1.24.24-2.28.66-3.13,1.25-.87.57-1.48,1.6-1.83,3.08-.35,1.48-.53,3.7-.53,6.67v18.05c0,5.31-1.8,9.58-5.4,12.82-3.6,3.24-8.36,4.85-14.29,4.85-6.9,0-12.25-1.56-16.03-4.68-3.78-3.12-5.67-7.47-5.67-13.06v-24.81c0-.8-.15-1.48-.46-2.05-.31-.57-.89-1.08-1.76-1.54-.59-.3-1.32-.54-2.19-.72-.87-.18-1.57-.31-2.12-.38v-2.6h25.43v2.6c-.73.05-1.47.13-2.22.26s-1.52.31-2.29.56c-.87.27-1.45.73-1.74,1.37-.3.64-.44,1.36-.44,2.15v24.47c0,4.81,1.06,8.31,3.17,10.49s5.19,3.28,9.22,3.28,7.07-1.21,9.32-3.62c2.25-2.42,3.38-5.97,3.38-10.66v-16.44c0-2.92-.2-5.1-.6-6.54-.4-1.45-1.01-2.49-1.83-3.13-.59-.5-1.62-.96-3.09-1.37s-2.5-.66-3.09-.75v-2.67h21.05v2.67Z"/>
        <path class="cls-2" d="M119.08,59.25h-19.21c-2.89-4.44-5.5-8.16-7.83-11.14-2.32-2.98-5.3-6.73-8.92-11.25h-1.78v15.24c0,.82.15,1.52.44,2.08.3.57.89,1.05,1.78,1.44.41.18,1.02.37,1.83.55.81.18,1.61.32,2.41.41v2.67h-25.77v-2.67c.62-.04,1.49-.11,2.61-.21,1.13-.09,1.92-.23,2.38-.41.82-.32,1.39-.76,1.71-1.33.32-.57.48-1.29.48-2.15V18.1c0-.8-.14-1.47-.41-2.02s-.87-1.04-1.78-1.47c-.71-.32-1.56-.58-2.56-.79-1-.21-1.81-.34-2.43-.41v-2.67h26.63v2.67c-.71.07-1.56.17-2.55.29-.99.13-1.84.3-2.55.53-.89.3-1.48.76-1.78,1.4-.3.64-.44,1.34-.44,2.12v16.34h1.44c1.78-1.62,3.85-3.57,6.22-5.84,2.37-2.28,4.2-4.15,5.5-5.61,1.82-2.03,3.16-3.63,4.02-4.82.85-1.18,1.28-2.21,1.28-3.08,0-.39-.41-.68-1.23-.89s-2.07-.35-3.76-.44v-2.67h21.09v2.67c-2.55.27-4.69.74-6.42,1.38-1.73.65-3.45,1.74-5.16,3.26-2.43,2.18-4.44,4.08-6.02,5.68s-3.61,3.66-6.09,6.16c2.18,2.67,4.81,5.93,7.89,9.8s6.13,7.63,9.18,11.3c.77.93,1.66,1.83,2.66,2.68,1,.86,2.1,1.54,3.31,2.07.57.25,1.22.44,1.94.58.73.14,1.35.22,1.88.24v2.67Z"/>
        <path class="cls-2" d="M163.75,59.25h-26.9v-2.67c.62-.04,1.52-.11,2.72-.21,1.2-.09,2.02-.23,2.48-.41.84-.34,1.42-.79,1.73-1.35s.46-1.27.46-2.14V18.1c0-.77-.15-1.46-.44-2.05-.3-.59-.88-1.07-1.74-1.44-.55-.23-1.36-.46-2.43-.7-1.07-.24-1.99-.4-2.77-.5v-2.67h26.9v2.67c-.68.07-1.54.17-2.56.29-1.03.13-1.89.3-2.6.53-.89.3-1.48.76-1.78,1.38-.3.63-.44,1.34-.44,2.14v34.35c0,.82.15,1.52.46,2.1.31.58.89,1.05,1.76,1.42.48.21,1.27.41,2.38.6,1.1.19,2.03.31,2.79.36v2.67Z"/>
        <path class="cls-2" d="M213.35,24.63h-2.67c-.71-2.07-1.84-4.29-3.39-6.67-1.56-2.37-3-3.65-4.31-3.83-.73-.09-1.63-.17-2.69-.24-1.07-.07-1.99-.1-2.76-.1h-1.6v38.04c0,.82.15,1.54.44,2.17.3.63.88,1.12,1.74,1.49.52.21,1.34.42,2.44.63,1.1.22,2.04.37,2.82.46v2.67h-27.04v-2.67c.66-.07,1.59-.17,2.79-.29,1.2-.12,2.01-.28,2.44-.46.89-.36,1.48-.85,1.78-1.47s.44-1.34.44-2.19V13.79h-1.6c-.77,0-1.69.03-2.76.1-1.07.07-1.97.15-2.69.24-1.32.18-2.76,1.46-4.31,3.83-1.56,2.37-2.69,4.59-3.39,6.67h-2.67v-13.88h47v13.88Z"/>
      </g>
      <g class="cls-1">
        <path class="cls-2" d="M25.94,119.25H4.1v-2.43c.62-.04,1.5-.11,2.67-.21,1.16-.09,1.98-.23,2.46-.41.75-.3,1.3-.7,1.64-1.21.34-.51.51-1.22.51-2.14v-35.14c0-.8-.13-1.46-.38-2-.25-.54-.84-.99-1.78-1.35-.68-.27-1.54-.53-2.58-.77-1.04-.24-1.89-.38-2.55-.43v-2.43h21.84v2.43c-.71.02-1.55.11-2.53.26-.98.15-1.83.34-2.56.56-.87.27-1.45.72-1.74,1.33-.3.62-.44,1.3-.44,2.05v35.1c0,.75.17,1.42.5,2,.33.58.89,1.04,1.69,1.38.48.18,1.26.38,2.34.6,1.08.22,2,.34,2.75.36v2.43Z"/>
        <path class="cls-2" d="M81.79,73.18c-.64.02-1.62.21-2.94.55-1.32.34-2.27.7-2.84,1.06-.82.57-1.37,1.66-1.66,3.28-.29,1.62-.43,3.67-.43,6.15v35.51h-2.97l-29.39-39.68v25.02c0,2.8.18,4.96.53,6.46.35,1.5.89,2.58,1.62,3.21.52.5,1.61.97,3.25,1.4,1.64.43,2.72.66,3.25.68v2.43h-19.89v-2.43c.62-.04,1.65-.27,3.11-.67,1.46-.4,2.37-.76,2.73-1.08.8-.64,1.34-1.61,1.64-2.92.3-1.31.44-3.55.44-6.72v-23.89c0-1.05-.18-2.1-.55-3.14-.36-1.05-.85-1.86-1.47-2.43-.82-.75-1.93-1.4-3.33-1.93-1.4-.53-2.54-.83-3.4-.87v-2.43h13.86l27.26,36.98v-23.07c0-2.83-.18-5-.55-6.51-.36-1.51-.89-2.52-1.57-3.02-.64-.43-1.68-.85-3.13-1.26-1.45-.41-2.55-.64-3.3-.68v-2.43h19.72v2.43Z"/>
        <path class="cls-2" d="M132.17,95.29c0,4.12-.77,7.7-2.32,10.73-1.55,3.03-3.57,5.51-6.05,7.45-2.51,1.94-5.32,3.38-8.44,4.34-3.12.96-6.35,1.44-9.67,1.44h-20.1v-2.43c.66,0,1.52-.06,2.58-.19,1.06-.12,1.76-.27,2.1-.43.68-.3,1.18-.74,1.49-1.32.31-.58.46-1.28.46-2.1v-35c0-.77-.13-1.47-.39-2.08-.26-.62-.78-1.1-1.56-1.47-.71-.34-1.47-.59-2.29-.75-.82-.16-1.53-.26-2.12-.31v-2.43h21.19c2.92,0,5.79.45,8.61,1.35,2.83.9,5.29,2.11,7.38,3.64,2.85,2.03,5.08,4.68,6.7,7.96,1.62,3.28,2.43,7.14,2.43,11.59ZM123.8,95.27c0-3.26-.43-6.2-1.3-8.83-.87-2.63-2.13-4.92-3.79-6.88-1.57-1.87-3.5-3.33-5.79-4.41s-4.84-1.61-7.64-1.61c-.93,0-1.99.02-3.16.05-1.17.03-2.05.06-2.61.08v37.26c0,2.07.6,3.51,1.81,4.3,1.21.8,3.06,1.2,5.57,1.2,2.89,0,5.42-.51,7.59-1.54,2.16-1.02,3.92-2.45,5.26-4.27,1.41-1.91,2.44-4.13,3.09-6.64s.97-5.42.97-8.73Z"/>
        <path class="cls-2" d="M187.2,73.18c-.64.02-1.57.16-2.8.41-1.23.25-2.23.63-3.01,1.13-.77.52-1.31,1.61-1.61,3.25-.3,1.64-.44,3.65-.44,6.02v21.09c0,2.69-.56,5.02-1.67,7.01-1.12,1.98-2.59,3.61-4.41,4.89-1.8,1.23-3.7,2.11-5.69,2.65-1.99.53-3.9.8-5.73.8-2.92,0-5.51-.38-7.79-1.14-2.28-.76-4.19-1.79-5.74-3.09-1.53-1.3-2.68-2.79-3.45-4.46-.77-1.67-1.16-3.42-1.16-5.25v-28.68c0-.8-.13-1.46-.39-2-.26-.54-.79-1.03-1.59-1.49-.57-.32-1.3-.58-2.19-.77s-1.62-.31-2.19-.36v-2.43h20.2v2.43c-.64.02-1.44.13-2.41.31-.97.18-1.68.35-2.14.51-.77.27-1.29.73-1.56,1.37-.26.64-.39,1.33-.39,2.08v26.78c0,1.3.14,2.66.43,4.08.28,1.42.85,2.75,1.69,3.98.89,1.25,2.1,2.28,3.62,3.07,1.53.8,3.62,1.2,6.29,1.2,2.51,0,4.61-.4,6.31-1.2,1.7-.8,3.04-1.84,4.02-3.14.93-1.23,1.59-2.51,1.98-3.86.39-1.34.58-2.7.58-4.06v-19.88c0-2.53-.18-4.59-.55-6.2-.36-1.61-.9-2.66-1.61-3.16-.8-.57-1.89-1.01-3.26-1.33-1.38-.32-2.43-.5-3.16-.55v-2.43h19.82v2.43Z"/>
        <path class="cls-2" d="M221.28,97c1.03,1.14,1.78,2.39,2.27,3.74s.74,2.93.74,4.73c0,4.28-1.58,7.82-4.75,10.6-3.17,2.78-7.1,4.17-11.79,4.17-2.17,0-4.33-.34-6.49-1.01-2.17-.67-4.03-1.49-5.61-2.44l-1.47,2.5h-2.73l-.48-16.61h2.77c.57,2.05,1.24,3.9,2,5.55.76,1.65,1.77,3.2,3.03,4.63,1.18,1.34,2.57,2.42,4.15,3.21,1.58.8,3.42,1.2,5.52,1.2,1.57,0,2.94-.21,4.12-.62,1.17-.41,2.12-.99,2.85-1.75s1.27-1.64,1.62-2.65c.35-1.01.53-2.18.53-3.51,0-1.94-.55-3.75-1.64-5.42-1.09-1.68-2.72-2.95-4.89-3.82-1.48-.59-3.18-1.24-5.09-1.96-1.91-.71-3.57-1.39-4.96-2.03-2.73-1.23-4.86-2.84-6.37-4.83-1.52-1.99-2.27-4.6-2.27-7.81,0-1.84.38-3.56,1.13-5.16s1.82-3.02,3.21-4.27c1.32-1.18,2.88-2.11,4.68-2.78,1.8-.67,3.68-1.01,5.64-1.01,2.23,0,4.23.34,6,1.03,1.77.68,3.38,1.48,4.84,2.39l1.4-2.32h2.73l.27,16.1h-2.77c-.5-1.85-1.07-3.61-1.69-5.3-.63-1.69-1.44-3.21-2.44-4.58-.98-1.32-2.18-2.38-3.59-3.16-1.41-.79-3.14-1.18-5.2-1.18-2.17,0-4.01.7-5.54,2.08-1.53,1.39-2.29,3.09-2.29,5.09s.49,3.83,1.47,5.21c.98,1.38,2.4,2.51,4.27,3.4,1.66.8,3.3,1.49,4.91,2.07,1.61.58,3.16,1.2,4.67,1.86,1.37.59,2.68,1.26,3.95,2.02,1.26.75,2.36,1.63,3.3,2.63Z"/>
        <path class="cls-2" d="M269.81,83.91h-2.36c-.21-.82-.58-1.79-1.11-2.92-.54-1.13-1.14-2.19-1.8-3.2-.69-1.05-1.43-1.97-2.24-2.75-.81-.79-1.59-1.24-2.35-1.35-.71-.09-1.6-.16-2.67-.21-1.07-.04-2.07-.07-2.98-.07h-1.99v38.79c0,.75.16,1.44.48,2.07s.88,1.11,1.67,1.45c.41.16,1.27.38,2.58.65s2.33.42,3.06.44v2.43h-22.9v-2.43c.64-.04,1.61-.14,2.92-.27,1.31-.14,2.21-.31,2.72-.51.75-.3,1.3-.72,1.66-1.28.35-.56.53-1.3.53-2.24v-39.1h-1.98c-.71,0-1.58.02-2.63.05-1.05.03-2.05.11-3.01.22-.75.09-1.53.54-2.34,1.35-.81.81-1.56,1.73-2.24,2.75s-1.29,2.11-1.81,3.26c-.52,1.15-.89,2.1-1.09,2.85h-2.39v-13.16h42.28v13.16Z"/>
        <path class="cls-2" d="M320.91,119.25h-13.06c-2.89-4.53-5.5-8.45-7.84-11.76-2.33-3.3-4.87-6.71-7.6-10.22h-4.97v15.38c0,.8.12,1.5.38,2.1.25.6.79,1.07,1.61,1.38.41.16,1.13.31,2.15.44s1.89.22,2.6.24v2.43h-20.51v-2.43c.55-.04,1.34-.12,2.38-.24,1.04-.11,1.76-.26,2.17-.44.68-.3,1.18-.73,1.49-1.3.31-.57.46-1.3.46-2.19v-35.07c0-.8-.11-1.5-.34-2.12-.23-.62-.76-1.08-1.61-1.4-.57-.21-1.31-.39-2.22-.56-.91-.17-1.69-.28-2.32-.32v-2.43h22.39c2.05,0,3.98.21,5.78.63,1.8.42,3.43,1.1,4.89,2.03,1.41.91,2.54,2.1,3.38,3.57.84,1.47,1.26,3.24,1.26,5.32,0,1.87-.29,3.52-.85,4.96-.57,1.44-1.41,2.68-2.53,3.73-1.03.98-2.26,1.83-3.69,2.55-1.44.72-3.02,1.33-4.75,1.83,2.39,3.17,4.38,5.83,5.96,8,1.58,2.17,3.53,4.8,5.83,7.9,1,1.37,1.91,2.38,2.72,3.03.81.65,1.61,1.18,2.41,1.59.59.3,1.33.52,2.22.68.89.16,1.63.25,2.22.27v2.43ZM302.93,83.11c0-2.93-.84-5.26-2.53-6.98-1.69-1.72-4.07-2.58-7.14-2.58h-5.81v20.78h4.48c3.14,0,5.76-1.01,7.86-3.02,2.1-2.01,3.14-4.75,3.14-8.21Z"/>
        <path class="cls-2" d="M364.35,73.18c-.39.02-1,.18-1.85.46-.84.29-1.45.56-1.81.84-.89.55-1.49.97-1.81,1.26-.32.3-.93,1.07-1.85,2.32-1.78,2.51-3.42,5.05-4.92,7.62-1.5,2.58-3.38,5.84-5.64,9.81-.84,1.46-1.4,2.63-1.67,3.52s-.41,2.18-.41,3.86v9.26c0,.82.17,1.53.5,2.14s.89,1.09,1.69,1.45c.48.18,1.33.41,2.56.67s2.22.4,2.97.43v2.43h-22.7v-2.43c.64-.04,1.59-.13,2.87-.26,1.28-.12,2.17-.29,2.67-.5.82-.34,1.38-.81,1.69-1.4.31-.59.46-1.32.46-2.19v-11.79c0-.36-.22-1.03-.67-2-.45-.97-.97-2.04-1.59-3.23-1.37-2.64-2.88-5.5-4.55-8.58s-3.11-5.71-4.34-7.9c-.75-1.3-1.42-2.28-2-2.94-.58-.66-1.25-1.24-2-1.74-.55-.34-1.2-.6-1.97-.79-.76-.18-1.45-.3-2.07-.34v-2.43h20.7v2.43c-2.32.05-3.97.2-4.92.48s-1.44.66-1.44,1.16c0,.14.07.38.21.72s.33.77.58,1.3c.29.59.65,1.27,1.06,2.03.41.76.8,1.5,1.16,2.2,1.07,2.03,2.16,4.05,3.27,6.06,1.11,2.02,2.57,4.64,4.37,7.88,3.57-5.76,6.3-10.25,8.18-13.48,1.88-3.22,2.82-5.15,2.82-5.79,0-.52-.19-.94-.58-1.26s-.9-.57-1.54-.75c-.66-.18-1.38-.3-2.15-.36-.77-.06-1.49-.12-2.15-.19v-2.43h16.86v2.43Z"/>
      </g>
      <g class="cls-1">
        <path class="cls-2" d="M49.97,179.25h-20.16v-2.43c1.78-.11,3.25-.34,4.43-.68s1.76-.76,1.76-1.26c0-.21-.02-.46-.07-.75-.05-.3-.11-.56-.2-.79l-4.02-10.87H14.68c-.64,1.6-1.16,2.99-1.56,4.17-.4,1.19-.76,2.28-1.08,3.28-.3.98-.5,1.78-.62,2.39-.11.62-.17,1.12-.17,1.5,0,.91.72,1.62,2.15,2.12,1.44.5,3.05.8,4.85.89v2.43H0v-2.43c.59-.04,1.33-.18,2.22-.39.89-.22,1.62-.51,2.19-.87.91-.62,1.62-1.26,2.12-1.93.5-.67.99-1.6,1.47-2.79,2.44-6.08,5.13-12.92,8.07-20.51s5.56-14.34,7.86-20.27h2.73l16.17,41.84c.34.89.73,1.61,1.16,2.15.43.55,1.04,1.08,1.81,1.61.52.32,1.21.59,2.05.8.84.22,1.55.34,2.12.36v2.43ZM30.46,159.43l-7.35-18.82-7.24,18.82h14.59Z"/>
        <path class="cls-2" d="M117.68,133.18c-.57.02-1.23.15-1.98.39-.75.24-1.45.55-2.08.94-.8.5-1.44,1.08-1.93,1.73-.49.65-.92,1.56-1.28,2.72-1.62,5.26-3.5,11.41-5.64,18.44-2.14,7.03-4.46,14.52-6.94,22.47h-3.15l-12.24-37.36-12.73,37.36h-3.02c-2.26-7.97-4.59-16.25-7.01-24.83-2.42-8.58-4.03-14.33-4.85-17.24-.21-.71-.51-1.33-.91-1.88-.4-.55-.94-1.05-1.62-1.5-.57-.39-1.24-.68-2-.87-.76-.19-1.45-.31-2.07-.36v-2.43h19.77v2.43c-1.73.09-3.21.26-4.43.51-1.22.25-1.83.67-1.83,1.26,0,.23.03.53.1.91.07.38.12.68.17.91.52,2.01,1.45,5.32,2.78,9.95,1.33,4.63,3.31,11.55,5.92,20.78l12.1-36.06h3.34l12.21,36.83c1.65-5.66,3.06-10.61,4.25-14.84,1.19-4.23,2.17-7.86,2.95-10.87.55-2.12.89-3.58,1.03-4.36.14-.79.21-1.45.21-2,0-.77-.53-1.42-1.59-1.95-1.06-.52-2.77-.88-5.14-1.06v-2.43h17.59v2.43Z"/>
        <path class="cls-2" d="M165.22,179.25h-20.16v-2.43c1.78-.11,3.25-.34,4.43-.68s1.76-.76,1.76-1.26c0-.21-.02-.46-.07-.75-.05-.3-.11-.56-.2-.79l-4.02-10.87h-17.03c-.64,1.6-1.16,2.99-1.56,4.17-.4,1.19-.76,2.28-1.08,3.28-.3.98-.5,1.78-.62,2.39-.11.62-.17,1.12-.17,1.5,0,.91.72,1.62,2.15,2.12,1.44.5,3.05.8,4.85.89v2.43h-18.27v-2.43c.59-.04,1.33-.18,2.22-.39.89-.22,1.62-.51,2.19-.87.91-.62,1.62-1.26,2.12-1.93.5-.67.99-1.6,1.47-2.79,2.44-6.08,5.13-12.92,8.07-20.51s5.56-14.34,7.86-20.27h2.73l16.17,41.84c.34.89.73,1.61,1.16,2.15.43.55,1.04,1.08,1.81,1.61.52.32,1.21.59,2.05.8.84.22,1.55.34,2.12.36v2.43ZM145.71,159.43l-7.35-18.82-7.24,18.82h14.59Z"/>
        <path class="cls-2" d="M214.2,179.25h-13.06c-2.89-4.53-5.5-8.45-7.84-11.76-2.33-3.3-4.87-6.71-7.6-10.22h-4.97v15.38c0,.8.12,1.5.38,2.1.25.6.79,1.07,1.61,1.38.41.16,1.13.31,2.15.44s1.89.22,2.6.24v2.43h-20.51v-2.43c.55-.04,1.34-.12,2.38-.24,1.04-.11,1.76-.26,2.17-.44.68-.3,1.18-.73,1.49-1.3.31-.57.46-1.3.46-2.19v-35.07c0-.8-.11-1.5-.34-2.12-.23-.62-.76-1.08-1.61-1.4-.57-.21-1.31-.39-2.22-.56-.91-.17-1.69-.28-2.32-.32v-2.43h22.39c2.05,0,3.98.21,5.78.63,1.8.42,3.43,1.1,4.89,2.03,1.41.91,2.54,2.1,3.38,3.57.84,1.47,1.26,3.24,1.26,5.32,0,1.87-.29,3.52-.85,4.96-.57,1.44-1.41,2.68-2.53,3.73-1.03.98-2.26,1.83-3.69,2.55-1.44.72-3.02,1.33-4.75,1.83,2.39,3.17,4.38,5.83,5.96,8,1.58,2.17,3.53,4.8,5.83,7.9,1,1.37,1.91,2.38,2.72,3.03.81.65,1.61,1.18,2.41,1.59.59.3,1.33.52,2.22.68.89.16,1.63.25,2.22.27v2.43ZM196.22,143.11c0-2.93-.84-5.26-2.53-6.98-1.69-1.72-4.07-2.58-7.14-2.58h-5.81v20.78h4.48c3.14,0,5.76-1.01,7.86-3.02,2.1-2.01,3.14-4.75,3.14-8.21Z"/>
        <path class="cls-2" d="M262.53,155.29c0,4.12-.78,7.7-2.32,10.73-1.55,3.03-3.57,5.51-6.05,7.45-2.51,1.94-5.32,3.38-8.44,4.34-3.12.96-6.35,1.44-9.67,1.44h-20.1v-2.43c.66,0,1.52-.06,2.58-.19,1.06-.12,1.76-.27,2.1-.43.68-.3,1.18-.74,1.49-1.32.31-.58.46-1.28.46-2.1v-35c0-.77-.13-1.47-.39-2.08s-.78-1.1-1.55-1.47c-.71-.34-1.47-.59-2.29-.75-.82-.16-1.53-.26-2.12-.31v-2.43h21.19c2.92,0,5.79.45,8.61,1.35s5.29,2.11,7.38,3.64c2.85,2.03,5.08,4.68,6.7,7.96s2.43,7.14,2.43,11.59ZM254.16,155.27c0-3.26-.43-6.2-1.3-8.83s-2.13-4.92-3.79-6.88c-1.57-1.87-3.5-3.33-5.79-4.41-2.29-1.07-4.84-1.61-7.64-1.61-.93,0-1.99.02-3.16.05-1.17.03-2.05.06-2.62.08v37.26c0,2.07.6,3.51,1.81,4.3s3.06,1.2,5.57,1.2c2.89,0,5.42-.51,7.59-1.54,2.16-1.02,3.92-2.45,5.26-4.27,1.41-1.91,2.44-4.13,3.09-6.64.65-2.52.97-5.42.97-8.73Z"/>
        <path class="cls-2" d="M298.69,157c1.03,1.14,1.78,2.39,2.27,3.74.49,1.36.73,2.93.73,4.73,0,4.28-1.58,7.82-4.75,10.6-3.17,2.78-7.1,4.17-11.79,4.17-2.17,0-4.33-.34-6.49-1.01-2.17-.67-4.03-1.49-5.61-2.44l-1.47,2.5h-2.73l-.48-16.61h2.77c.57,2.05,1.24,3.9,2,5.55.76,1.65,1.77,3.2,3.02,4.63,1.18,1.34,2.57,2.42,4.15,3.21,1.58.8,3.42,1.2,5.52,1.2,1.57,0,2.95-.21,4.12-.62,1.17-.41,2.12-.99,2.85-1.75.73-.75,1.27-1.64,1.62-2.65.35-1.01.53-2.18.53-3.51,0-1.94-.55-3.75-1.64-5.42-1.09-1.68-2.72-2.95-4.89-3.82-1.48-.59-3.18-1.24-5.09-1.96-1.91-.71-3.57-1.39-4.96-2.03-2.73-1.23-4.86-2.84-6.38-4.83-1.52-1.99-2.27-4.6-2.27-7.81,0-1.84.38-3.56,1.13-5.16s1.82-3.02,3.21-4.27c1.32-1.18,2.88-2.11,4.68-2.78,1.8-.67,3.68-1.01,5.64-1.01,2.23,0,4.23.34,6,1.03s3.38,1.48,4.84,2.39l1.4-2.32h2.73l.27,16.1h-2.77c-.5-1.85-1.07-3.61-1.69-5.3-.63-1.69-1.44-3.21-2.44-4.58-.98-1.32-2.18-2.38-3.59-3.16-1.41-.79-3.14-1.18-5.2-1.18-2.17,0-4.01.7-5.54,2.08-1.53,1.39-2.29,3.09-2.29,5.09s.49,3.83,1.47,5.21,2.4,2.51,4.27,3.4c1.66.8,3.3,1.49,4.9,2.07,1.61.58,3.16,1.2,4.67,1.86,1.37.59,2.68,1.26,3.95,2.02,1.27.75,2.36,1.63,3.3,2.63Z"/>
      </g>
    </g>
  </g>
</svg>