<?xml version="1.0" encoding="UTF-8"?>
<svg id="Component_4_1" xmlns="http://www.w3.org/2000/svg" xmlns:xlink="http://www.w3.org/1999/xlink" version="1.1" viewBox="0 0 418 190.5">
  <!-- Generator: Adobe Illustrator 29.4.0, SVG Export Plug-In . SVG Version: 2.1.0 Build 152)  -->
  <defs>
    <style>
      .st0 {
        fill: #233770;
      }

      .st1 {
        fill: #f15b27;
      }

      .st2 {
        fill: #ffdd76;
      }

      .st3 {
        fill: #233871;
      }

      .st4 {
        fill: url(#linear-gradient);
      }

      .st5 {
        fill: #fff;
      }

      .st6 {
        fill: #22376e;
      }
    </style>
    <linearGradient id="linear-gradient" x1="-12165.3" y1="27.1" x2="-12164.3" y2="27.1" gradientTransform="translate(879452.7 -2635.9) scale(72.3 99.1)" gradientUnits="userSpaceOnUse">
      <stop offset="0" stop-color="#ffdc74"/>
      <stop offset=".7" stop-color="#faa746"/>
      <stop offset=".9" stop-color="#f67d22"/>
    </linearGradient>
  </defs>
  <path id="Path_41" class="st1" d="M160.1,114.3c0,2.6-2.1,4.6-4.7,4.6,0,0-.2,0-.3,0h-6.4v-16.8h6.4c2.3-.2,4.3,1.6,4.5,3.9.1,1.8-.9,3.5-2.6,4.2,1.9.5,3.2,2.2,3.1,4.2h0ZM149.5,102.8v6.8h5.9c1.9,0,3.4-1.5,3.4-3.4s-1.5-3.4-3.4-3.4h-5.9q0,0,0,0ZM159.3,114.3c0-2.1-1.7-3.9-3.9-3.9h-6v7.7h5.8c2.1,0,3.9-1.6,4-3.8h0c.1,0,.1,0,0,0h0Z"/>
  <path id="Path_42" class="st0" d="M148.6,75.1v-29.7h13.6v29.4c0,4.7,3.1,7.8,7.5,7.8s7.5-3.1,7.5-7.8v-29.4h13.6v29.7c0,11.9-8.8,20-21.1,20-12.4,0-21.1-8.1-21.1-20Z"/>
  <path id="Path_43" class="st0" d="M225.5,93.8l-13.9-21.4v21.4h-13.3v-48.4h13.4v20.4l12.8-20.4h15.4l-15.4,23.4,17,25h-15.9Z"/>
  <path id="Path_44" class="st0" d="M286.5,68.3c4.6,2.1,7.5,6.8,7.4,11.8,0,7.8-6.8,13.8-15.7,13.8h-22.3v-48.4h21.9c8.6,0,14.8,5.2,14.8,12.4,0,4.3-2.3,8.3-6.1,10.4h0ZM280.7,78.4c0-2.6-1.9-4.4-4.8-4.4h-7.3v8.8h7.2c3,0,4.8-1.7,4.8-4.4ZM275.4,55.8h-6.8v8.4h6.8c2.8,0,4.5-1.7,4.5-4.2s-1.7-4.2-4.5-4.2h0Z"/>
  <path id="Path_45" class="st0" d="M328.3,92.8l-2.3-2.4c-4,2.3-8.6,3.5-13.3,3.4-9.3,0-15.8-5.4-15.8-13.5s3.9-10,8.4-12.9c-3.8-5.2-4.6-7.8-4.6-10.4,0-7.5,6.5-11.6,14.7-11.6s14.6,4.2,14.6,11.5-5,9.8-10.1,12.8c1.6,1.9,3.6,4.1,5.8,6.5.8-1.7,1.3-3.5,1.5-5.3h10.5c-.1,4.8-1.8,9.4-4.6,13.3,2.5,2.7,5.1,5.5,8,8.6h-12.6q0,0,0,0ZM319,82.9c-3-3.1-5.4-5.8-7.4-8.2-1.7,1.5-3,3.1-3,5.1s2,4.2,5.1,4.2c1.8,0,3.6-.4,5.2-1.2h0ZM311.8,57.2c0,1.3.8,3,2.3,5.3,2.9-1.6,4.9-3.2,4.9-5.3,0-1.8-1.5-3.3-3.3-3.3-.1,0-.2,0-.3,0-2.1,0-3.6,1.2-3.6,3.3h0Z"/>
  <path id="Path_46" class="st0" d="M343.8,45.4h13.5v48.4h-13.5v-48.4Z"/>
  <path id="Path_47" class="st0" d="M394.6,85.9h-17.2l-2.7,7.9h-14.3l19-48.4h13l19.4,48.4h-14.7l-2.6-7.9h0ZM386.1,60.5l-5.3,15h10.6s-5.4-15-5.4-15Z"/>
  <path id="Path_48" class="st1" d="M163.1,112.5v-10.7h.8v10.7c0,3.1,2.3,5.6,5.4,5.7s5.6-2.3,5.7-5.4v-11h.8v10.7c0,3.5-2.7,6.4-6.2,6.4s-6.4-2.7-6.4-6.2v-.2h0Z"/>
  <path id="Path_49" class="st1" d="M178.4,113.7h.8c0,2.7,2,4.4,5.1,4.4s4.8-1.6,4.8-4-2.4-3.2-4.9-3.8c-2.6-.6-5.4-1.2-5.4-4.3s2.1-4.5,5.4-4.5,5.2,1.8,5.2,4.7h-.8c0-2.4-1.8-3.9-4.5-3.9s-4.6,1.4-4.6,3.7,2.4,3.1,4.9,3.6c2.7.6,5.4,1.2,5.4,4.5s-2.3,4.7-5.6,4.7c-3.7.1-6-1.9-6-5.1h0Z"/>
  <path id="Path_50" class="st1" d="M192.7,101.8h.8v16.9h-.8v-16.9Z"/>
  <path id="Path_51" class="st1" d="M210.4,101.8v16.9h-.7l-11.4-15.5v15.5h-.8v-16.9h.7l11.4,15.4v-15.4h.7Z"/>
  <path id="Path_52" class="st1" d="M223.9,118v.8h-9.4v-16.9h9.1v.8h-8.3v7h7.7v.8h-7.7v7.7h8.6c0-.1,0,0,0,0Z"/>
  <path id="Path_53" class="st1" d="M225.3,113.7h.8c0,2.7,2,4.4,5.1,4.4s4.8-1.6,4.8-4-2.4-3.2-4.9-3.8c-2.6-.6-5.4-1.2-5.4-4.3s2.1-4.5,5.4-4.5,5.2,1.8,5.2,4.7h-.8c0-2.4-1.8-3.9-4.5-3.9s-4.6,1.4-4.6,3.7,2.4,3.1,4.9,3.6c2.7.6,5.4,1.2,5.4,4.5s-2.3,4.7-5.6,4.7c-3.7.1-6-1.9-6-5.1h0Z"/>
  <path id="Path_54" class="st1" d="M238.3,113.7h.8c0,2.7,2,4.4,5.1,4.4s4.8-1.6,4.8-4-2.4-3.2-4.9-3.8c-2.6-.6-5.4-1.2-5.4-4.3s2.1-4.5,5.4-4.5,5.2,1.8,5.2,4.7h-.8c0-2.4-1.8-3.9-4.5-3.9s-4.6,1.4-4.6,3.7,2.4,3.1,4.9,3.6c2.7.6,5.4,1.2,5.4,4.5s-2.3,4.7-5.6,4.7c-3.6.1-6-1.9-6-5.1h0Z"/>
  <path id="Path_55" class="st1" d="M269.3,118.7c-.7-.8-1.4-1.5-2-2.1-1.3,1.6-3.2,2.5-5.3,2.4-3,0-4.9-1.7-4.9-4.2s1.9-4,3.9-5.2c-1.8-2.2-2.3-3.6-2.3-4.7,0-1.9,1.6-3.3,3.9-3.3s3.8,1.2,3.8,3.1-2.1,3.8-4.2,5.1h0c1.2,1.5,3,3.4,5.2,5.8.7-1.2,1-2.5,1-3.9h.7c0,1.6-.4,3.1-1.2,4.4.8.8,1.6,1.7,2.6,2.8h-1q0-.1,0-.1ZM266.8,116.1c-2.5-2.6-4.2-4.5-5.5-6-1.9,1.2-3.6,2.5-3.6,4.7s1.7,3.5,4.3,3.5c1.9,0,3.6-.8,4.8-2.2h0ZM261.5,109.2h0c2-1.2,4-2.5,4-4.5s-1.2-2.4-3.1-2.4-3.2,1-3.2,2.6.6,2.3,2.2,4.4h0Z"/>
  <path id="Path_56" class="st1" d="M277.1,101.8h.8v16.9h-.8v-16.9Z"/>
  <path id="Path_57" class="st1" d="M294.9,101.8v16.9h-.7l-11.4-15.5v15.5h-.8v-16.9h.7l11.4,15.4v-15.4h.7Z"/>
  <path id="Path_58" class="st1" d="M311.9,101.8v16.9h-.7l-11.4-15.5v15.5h-.8v-16.9h.7l11.3,15.4v-15.4h.8Z"/>
  <path id="Path_59" class="st1" d="M314.8,110.3c0-4.8,3.9-8.8,8.7-8.8s8.8,3.9,8.8,8.7c0,4.8-3.9,8.8-8.7,8.8h0c-4.7.1-8.6-3.6-8.7-8.4v-.4h0ZM331.4,110.3c0-4.4-3.6-7.9-8-7.9s-8,3.6-8,7.9,3.6,7.9,8,7.9c4.3.1,7.8-3.2,8-7.5v-.5h0Z"/>
  <path id="Path_60" class="st1" d="M347.4,101.8l-7,16.9h-.7l-7.1-17h.9l6.6,15.7,6.4-15.7h1c0,0,0,0,0,0Z"/>
  <path id="Path_61" class="st1" d="M358.6,113.8h-9.3l-2.1,4.9h-.8l7.2-17h.7l7.4,16.9h-1l-2-4.8h0ZM349.6,113.1h8.7l-4.4-10.1-4.3,10.1Z"/>
  <path id="Path_62" class="st1" d="M371.9,102.6h-5.5v16.2h-.8v-16.2h-5.5v-.8h11.9v.8Z"/>
  <path id="Path_63" class="st1" d="M374,101.8h.8v16.9h-.8v-16.9Z"/>
  <path id="Path_64" class="st1" d="M377.6,110.3c0-4.8,3.9-8.8,8.7-8.8s8.8,3.9,8.8,8.7c0,4.8-3.9,8.8-8.7,8.8h0c-4.7.1-8.6-3.6-8.7-8.4v-.4h0ZM394.4,110.3c0-4.4-3.6-7.9-8-7.9s-8,3.6-8,7.9,3.6,7.9,8,7.9c4.3.1,7.8-3.2,8-7.5v-.5h0Z"/>
  <path id="Path_65" class="st1" d="M410.8,101.8v16.9h-.7l-11.4-15.5v15.5h-.8v-16.9h.7l11.4,15.4v-15.4h.7Z"/>
  <path id="Path_66" class="st0" d="M408.9,47.2h-1.9v5.3h-2v-5.3h-1.9v-1.7h5.8v1.7h0Z"/>
  <path id="Path_67" class="st0" d="M416,52.5l-.6-4.1-1.8,4.1h-.6l-1.8-4.1-.5,4.1h-1.9l1.1-7.1h1.9l1.6,3.8,1.6-3.8h1.9l1,7.1h-2Z"/>
  <path id="Path_68" class="st0" d="M166.6,144.7h-13.6l-3.1,7.2h-1.2l10.4-24.7h1l10.8,24.7h-1.2l-3.1-7.2ZM153.5,143.6h12.7l-6.4-14.8-6.3,14.8h0Z"/>
  <path id="Path_69" class="st0" d="M214.2,127.2l-7.9,24.7h-1l-7.9-21.4-7.8,21.4h-.9l-8.1-24.7h1.2l7.4,22.7,7.9-21.8h.6l8.1,21.8,7.2-22.7h1.2Z"/>
  <path id="Path_70" class="st0" d="M241.8,144.7h-13.6l-3.1,7.2h-1.2l10.4-24.7h1l10.8,24.7h-1.2l-3.1-7.2ZM228.6,143.6h12.7l-6.4-14.8-6.3,14.8h0Z"/>
  <path id="Path_71" class="st0" d="M269.6,141.1l6.4,10.8h-1.3l-6.4-10.7h-7.6v10.7h-1.2v-24.7h9c4.3,0,7.5,2.9,7.5,7,0,3.6-2.9,6.6-6.5,6.9h0ZM260.8,140h7.8c3.8,0,6.4-2.5,6.4-5.9s-2.7-5.9-6.4-5.9h-7.8v11.7h0Z"/>
  <path id="Path_72" class="st0" d="M310.5,139.5c0,7.2-5.2,12.4-12.5,12.4h-7.3v-24.7h7.3c7.3,0,12.5,5.2,12.5,12.3h0ZM309.4,139.5c0-6.5-4.7-11.3-11.4-11.3h-6.1v22.5h6.1c6.1.2,11.2-4.5,11.4-10.5,0-.2,0-.5,0-.7h0Z"/>
  <path id="Path_73" class="st0" d="M323.2,144.6h1.2c0,3.9,3,6.4,7.5,6.4s7-2.4,7-5.8-3.5-4.7-7.2-5.4c-3.8-.8-8-1.7-8-6.3s3.2-6.5,8-6.5,7.7,2.8,7.7,6.9h-1.1c0-3.5-2.6-5.8-6.5-5.8s-6.8,2.1-6.8,5.4,3.5,4.5,7.1,5.3c3.9.9,8,1.8,8,6.5s-3.4,7-8.1,7c-5.3,0-8.7-3.1-8.7-7.6h0Z"/>
  <path id="Path_74" class="st0" d="M386,150.8v1.1h-15.2v-.6c11.6-11.5,12.8-13.6,12.8-17s-2.1-5.1-5.5-5.1-5.6,2.1-5.6,5.1v.7h-1v-.7c0-3.7,2.9-6.2,6.7-6.2s6.5,2.6,6.5,6.2-1.2,5.9-12,16.6h13.2Z"/>
  <path id="Path_75" class="st0" d="M412.6,150.8v1.1h-15.2v-.6c11.6-11.5,12.8-13.6,12.8-17s-2.1-5.1-5.5-5.1-5.6,2.1-5.6,5.1v.7h-1.1v-.7c0-3.7,2.9-6.2,6.7-6.2s6.5,2.6,6.5,6.2-1.2,5.9-12,16.6h13.2Z"/>
  <circle id="Ellipse_1" class="st6" cx="65.7" cy="124.9" r="65.7"/>
  <path id="Path_77" class="st3" d="M86.2,108.8c0-.2-.2-.3-.3-.4-.2,0-.5,0-.5-.3s0-.2-.2-.2,0,0-.2.2c0,.2.1.4.3.4.2,0,.5,0,.5.3s.4,0,.3,0h0Z"/>
  <path id="Path_78" class="st4" d="M111.9,0c-.6,0-1.2,0-1.8.2-7.6,1.9-13.3,6.3-16.2,13.7-.9,2.8-1.8,5.6-2.4,8.4-1.2,4.5-2.7,8.7-6.3,11.9-4.4,3.8-9.6,5.7-15,7.2-5.6,1.6-11.2,2.9-16.5,4.9-9,3.4-13.9,10.1-14.1,19.9,0,5.7,1.3,11.2,4.1,16.2,2.7-1.7,5.6-3,8.7-3.9,3.1-8.5,8.7-13.6,15.5-13-.6,1.6-1.2,3.2-1.6,4.8-1.3,4.8.4,8.4,4.9,10.4,8.3,3.6,15,10.1,18.9,18.2,1.7-1.2,6-3.7,7.5-5.3,6.2-6.5,8.1-14.4,6.7-23.7-1.2,1-2.4,2-3.7,2.9-2.6,1.9-6.1,1.7-8.5-.4-2.2-2.3-2.4-5.8-.5-8.2,1.9-2.2,4-4.2,6.4-5.8,2.9-2.1,5.8-4.3,7-7.9,1.5-4.5.8-9-.3-13.5-.9-4-2.2-8-2.7-12-.9-8.7,2.1-16.2,7.9-22.8.6-.9,1.2-1.7,1.9-2.4h0Z"/>
  <path id="Path_79" class="st2" d="M86.7,15.2c-.4,10.8-4.6,17.3-16.7,21-.8-2.9.4-5.2,2.2-7.2,1.3-1.3,2.8-2.5,4.3-3.5,3.6-2.2,6.7-5.2,8.9-8.8.4-.5.8-1,1.2-1.5h0Z"/>
  <path id="Path_80" class="st2" d="M110.8,10.8c-2.4,4.8-.7,9.3.3,14,1,5-.4,9.7-2.3,14.3h-.6c-1.1-5.5-2.5-11.1-3-16.7-.5-4.5,2-8.4,5.7-11.5Z"/>
  <path id="Path_81" class="st5" d="M108.2,175l-14.4-15.4c-4.5-4.8-9-9.6-13.4-14.5-1.7-1.7-2.5-4-2.2-6.4.4-4.2.6-8.3.6-12.5,0-2.1,0-4.5-.9-6.2-.4-.8-.9-1.5-1.3-2.2.5-.8,1.1-1.6,1.7-2.3l1.9-2.2-2.6,1.5c-.7.6-1.3,1.2-1.8,2-2.1-3.3-4.5-6.6-6.7-9.8-.8-1.4-2.6-1.9-4.1-1.2-4.4,1.9-13,5.9-13,5.9-4.5,2.9,10,8.7,14.2,5.2-5.7,7.4-3.2,26.5-3.2,26.5,0,0-2.8,7.1-3.3,6.6-1.4-1.6-2.8-3.4-4-5.1-.6-1.3-1.2-2.6-1.7-4-2.4,2-5.7,5-10.3,2.8-1.3-.7-6.7-2.6-8.9-3.8.6,1,3.7,6.8,5.8,8.8,4.5,4.5,9.6,8.4,15.1,11.6,2.1,1.2,3.9,2.8,5.3,4.7,6.2,8.1,12.4,16.2,18.6,24.2,12.1-1.7,23.7-8.9,28.4-14.1h0Z"/>
  <path id="Path_82" class="st5" d="M37.7,129.1c1.2,1,13.8,9,13.8,9l2.4-8.1-11.5-8.1c-.4-.3-.8-.6-1.3-.6-2.1.3-3.1,1.9-4,3.7-.6,1.4-1,2.9.5,4.1h0Z"/>
  <path id="Path_83" class="st5" d="M43.2,121.3c3.9,2.8,13.9,8.9,13.9,8.9l1.6-7.4-10-9.1c-.2-.2-.4-.4-.7-.5-1.4-.5-4.1.8-5.2,2.6-1.2,2.1-1.2,4.4.4,5.5h0Z"/>
  <path id="Path_84" class="st5" d="M35.6,138.7c2.6,1.2,11.1,3.9,11.1,3.9l1.8-4.6s-11.1-7.9-11.2-7.8c-1.1,1.3-2.5,2.5-3,4-.5,1.5-.9,3.5,1.3,4.5h0Z"/>
  <path id="Path_85" class="st5" d="M58.8,107.7c-4.5-3.7-10.3.4-8.8,4.1,1.4-1.7,5.7-3.3,8.8-4.1Z"/>
  <path id="Path_86" class="st5" d="M62.1,120c.7-.7,1.3-1.3,2-2.1-3.6,1.3-6.8,0-10-1.2,1.9,1.9,5.3,4.9,7.9,3.3Z"/>
  <path id="Path_87" class="st5" d="M76.3,85.6c-17.8-13.8-34.5-1.3-39.8,5.2-2.3,2.1.5,8.2,1.2,9.5,15.8-12.5,41.6-2.7,43.1,12.2.6.7,7.5-6.2,7.5-8.2-.2-6.7-4.6-12.9-12-18.7h0ZM41.2,91l-1.5-1.7c19.9-13.2,35.3-8.7,46.8,12.1l-1.5,2.7c-10.7-22.1-25.2-26.3-43.8-13.1h0Z"/>
  <path id="Path_88" class="st5" d="M76.1,108.6c-3.1-11.3-22.9-16.5-31.7-9.6l.6.9c9.2-4.4,22.7-3.6,30,8.8.4,0,.8,0,1.2,0h0Z"/>
  <path id="Path_89" class="st5" d="M42.5,108.3h0l.5-.4c-.4-1.6-1.1-3.2-1.9-4.6l-2.2-1.9,1.5,2.5c.4.6,1.8,4.3,2.1,4.4Z"/>
</svg>